<svg width="967" height="144" viewBox="0 0 967 144" fill="none" xmlns="http://www.w3.org/2000/svg">
<path d="M0.109985 0.5H82.11V21H102.61V103H82.11V21H20.61V103H0.109985V0.5ZM223.15 0.5V103H120.65V0.5H223.15ZM202.65 82.5V21H141.15V82.5H202.65ZM322.37 41.5V21H261.69V41.5H322.37ZM343.69 103H323.19V62H261.69V103H241.19V0.5H322.37V21H343.69V41.5H323.19V62H343.69V103ZM502.77 82.5H564.27V103H482.27V0.5H502.77V82.5ZM684.81 0.5V103H582.31V0.5H684.81ZM664.31 82.5V21H602.81V82.5H664.31ZM805.35 21H723.35V82.5H805.35V103H702.85V0.5H805.35V21ZM925.89 103V62H905.39V103H925.89ZM925.89 0.5H905.39V41.5H925.89V0.5ZM823.39 103V0.5H843.89V41.5H905.39V62H843.89V103H823.39ZM823.39 0.5V103V0.5Z" fill="black"/>
<rect x="362" y="43" width="102" height="18" fill="black"/>
<rect x="362" y="85" width="102" height="18" fill="black"/>
<rect x="362" width="102" height="18" fill="black"/>
</svg>
